<svg width="250" height="250" viewBox="0 0 250 250" fill="none" xmlns="http://www.w3.org/2000/svg">
<path d="M62.0296 248.546L60.3164 246.223C60.9596 245.254 61.379 244.177 61.5491 243.056C62.362 238.745 62.5358 234.355 62.0659 230.002C61.4031 223.995 59.1278 218.228 55.4396 213.206C53.7224 210.736 51.7472 208.421 49.5414 206.294L98.7201 179.821C97.9401 179.118 93.7916 175.343 88.7176 170.196C85.4885 166.922 82.5428 163.757 79.9616 160.798C77.111 157.578 74.4719 154.208 72.0579 150.705C69.7007 147.184 67.1821 143.394 64.6394 138.965C61.7022 133.917 59.1604 128.687 57.033 123.314C55.8206 120.235 54.7581 117.075 53.8342 113.945C52.8501 110.523 52.0338 107.008 51.4169 103.508C50.743 99.6833 50.2828 95.8301 50.0382 91.9631C49.7737 87.7409 49.7502 83.509 49.9678 79.2846C50.1222 76.0872 50.5514 72.9057 51.2515 69.7691C51.8862 66.9701 52.7424 64.2163 53.8134 61.5293C55.6498 56.9733 58.0344 52.6155 60.924 48.5351C63.0313 45.5507 65.4684 42.7694 68.1975 40.2346C70.9417 37.6807 73.9143 35.338 77.0847 33.2304C80.1638 31.1777 83.406 29.335 86.7849 27.7176C89.9136 26.2053 93.1659 24.9142 96.513 23.8558C97.5571 23.5306 99.3006 23.0194 101.727 22.4284C106.773 21.1856 111.918 20.2999 117.115 19.7793C122.259 19.1171 127.495 19.3577 132.54 20.488C134.925 21.1452 137.224 22.0379 139.395 23.1502C141.834 24.3983 144.098 25.9095 146.138 27.651C151.142 32.0661 154.871 37.5335 156.996 43.5696C158.212 46.6962 159.075 49.9273 159.569 53.2129C159.969 55.9538 159.981 58.7298 159.606 61.4735C158.627 66.9418 156.673 72.2285 153.822 77.1256C151.362 81.5068 148.357 85.6172 144.866 89.376C142.511 92.0102 139.978 94.5091 137.281 96.8583C134.338 99.4205 131.174 101.765 127.819 103.869C121.174 107.851 114.05 111.131 106.585 113.644C99.6212 116.092 93.231 117.794 89.4128 118.811L89.3804 118.818L88.3273 119.098C98.2666 141.215 110.251 155.894 126.041 165.303C132.034 169.075 138.821 171.679 145.975 172.952C153.13 174.226 160.497 174.14 167.613 172.702C168.612 172.545 169.672 172.334 170.809 172.058C183.394 168.992 197.944 160.463 197.519 146.524C197.126 139.243 194.595 132.189 190.189 126.096C188.202 123.212 185.864 120.54 183.221 118.13L217.413 105.328C218.915 107.619 220.233 110.005 221.358 112.468C222.514 114.946 223.487 117.491 224.27 120.087C225.183 123.079 225.767 126.146 226.014 129.243C226.237 134.358 225.42 139.467 223.605 144.314C222.138 148.553 220.011 152.58 217.289 156.271C214.228 160.169 210.695 163.743 206.757 166.925C202.054 170.793 196.755 174.016 191.027 176.494C186.401 178.414 181.599 179.964 176.676 181.127C168.476 183.037 160.128 184.375 151.704 185.13C144.219 185.717 136.7 185.883 129.192 185.627C124.069 185.373 118.931 185.504 113.831 186.017C112.061 186.307 110.262 186.674 108.483 187.107C102.419 188.614 96.5839 190.798 91.1103 193.607C88.799 194.767 86.5757 196.066 84.4552 197.496C85.5434 199.589 86.5015 201.737 87.3248 203.928C88.1357 206.045 88.8129 208.202 89.353 210.389C89.951 212.763 90.2996 215.183 90.3941 217.617C90.4492 221.376 89.5933 225.1 87.8872 228.525C86.5598 231.315 84.7877 233.912 82.6278 236.233C80.6824 238.249 78.4955 240.061 76.1077 241.637C73.9704 243.058 71.7259 244.342 69.3907 245.478C67.0184 246.654 64.5575 247.675 62.0263 248.535L62.0296 248.546ZM102.164 35.1281C99.3111 35.7973 96.5881 36.8589 94.0889 38.2761C88.4622 41.7921 83.974 46.612 81.0902 52.2357C77.7807 61.3948 76.6911 71.0957 77.8963 80.6732C78.89 88.3867 80.4608 96.0297 82.5978 103.549C83.9718 107.94 85.584 112.198 85.6614 112.372C88.2685 111.544 90.8241 110.588 93.3168 109.507C95.4691 108.589 98.7829 106.995 101.011 105.747C106.242 102.878 111.159 99.5623 115.698 95.846C121.241 91.1054 125.593 85.3335 128.455 78.9247C129.73 76.1715 130.674 73.3011 131.269 70.3636C131.812 67.6675 132.166 64.9429 132.329 62.206C132.807 57.1755 132.161 52.109 130.43 47.3109C129.22 44.2622 127.245 41.5115 124.662 39.2767C122.078 37.042 118.957 35.3848 115.545 34.4364C111.085 33.7402 106.508 33.9768 102.164 35.1281Z" fill="#0084F8" stroke="#0084F8" stroke-width="1.71159"/>
</svg>
