<svg width="32" height="34" viewBox="0 0 32 34" fill="none" xmlns="http://www.w3.org/2000/svg">
<path d="M15.8175 0C7.0775 0 0 7.09333 0 15.8333C0 24.5733 7.0775 31.6667 15.8175 31.6667C24.5733 31.6667 31.6667 24.5733 31.6667 15.8333C31.6667 7.09333 24.5733 0 15.8175 0ZM26.79 9.5H22.1192C21.6236 7.53898 20.8898 5.646 19.9342 3.86333C22.8224 4.85767 25.256 6.85856 26.79 9.5ZM15.8333 3.23C17.1475 5.13 18.1767 7.23583 18.8575 9.5H12.8092C13.49 7.23583 14.5192 5.13 15.8333 3.23ZM3.57833 19C3.325 17.9867 3.16667 16.9258 3.16667 15.8333C3.16667 14.7408 3.325 13.68 3.57833 12.6667H8.93C8.80333 13.7117 8.70833 14.7567 8.70833 15.8333C8.70833 16.91 8.80333 17.955 8.93 19H3.57833ZM4.87667 22.1667H9.5475C10.0542 24.1458 10.7825 26.0458 11.7325 27.8033C8.84128 26.8144 6.4059 24.8121 4.87667 22.1667ZM9.5475 9.5H4.87667C6.4059 6.85453 8.84128 4.85223 11.7325 3.86333C10.7768 5.646 10.0431 7.53898 9.5475 9.5ZM15.8333 28.4367C14.5192 26.5367 13.49 24.4308 12.8092 22.1667H18.8575C18.1767 24.4308 17.1475 26.5367 15.8333 28.4367ZM19.5383 19H12.1283C11.9858 17.955 11.875 16.91 11.875 15.8333C11.875 14.7567 11.9858 13.6958 12.1283 12.6667H19.5383C19.6808 13.6958 19.7917 14.7567 19.7917 15.8333C19.7917 16.91 19.6808 17.955 19.5383 19ZM19.9342 27.8033C20.8842 26.0458 21.6125 24.1458 22.1192 22.1667H26.79C25.256 24.8081 22.8224 26.809 19.9342 27.8033ZM22.7367 19C22.8633 17.955 22.9583 16.91 22.9583 15.8333C22.9583 14.7567 22.8633 13.7117 22.7367 12.6667H28.0883C28.3417 13.68 28.5 14.7408 28.5 15.8333C28.5 16.9258 28.3417 17.9867 28.0883 19H22.7367Z" fill="#0084F8"/>
<g clip-path="url(#clip0_939_1057)">
<rect x="21.2887" y="19.4077" width="5.45545" height="6.0198" fill="#0084F8"/>
<rect x="15.2689" y="22.7939" width="5.45545" height="6.0198" fill="#0084F8"/>
<path d="M17.8086 24.7222L17.3383 26.1801H18.2789L17.8086 24.7222Z" fill="white"/>
<path d="M26.8852 18.373H19.3605V20.7245H21.2417V21.6651H15.1278C14.3283 21.6651 13.7169 22.2765 13.7169 23.076V28.2493C13.7169 29.0488 14.3283 29.6602 15.1278 29.6602H15.5981V32.0587L18.561 29.6602H21.712V26.3681H26.8852C27.6847 26.3681 28.2961 25.7567 28.2961 24.9572V19.7839C28.2961 18.9844 27.6847 18.373 26.8852 18.373ZM18.7961 27.732L18.561 26.9795H17.1031L16.8209 27.732H15.6922L17.2441 23.5463H18.3729L19.9248 27.732H18.7961ZM25.9446 24.0166V24.9572C25.3333 24.9572 24.6748 24.7691 24.1105 24.4869C23.5461 24.7691 22.8877 24.9102 22.2293 24.9572L22.1823 24.0166C22.5115 24.0166 22.8407 23.9696 23.1699 23.8755C22.7466 23.4523 22.4644 22.9349 22.3234 22.3706H23.311C23.4521 22.7938 23.7342 23.123 24.0635 23.4052C24.5808 22.982 24.91 22.3706 24.957 21.6651H22.1352V20.7245H23.5461V19.7839H24.4867V20.7245H26.0387L26.0857 21.1948C26.1328 22.1825 25.7565 23.1701 25.0511 23.8755C25.3803 23.9696 25.6625 24.0166 25.9446 24.0166Z" fill="white"/>
</g>
<defs>
<clipPath id="clip0_939_1057">
<rect width="16.9307" height="16.9307" fill="white" transform="translate(12.6353 16.9622)"/>
</clipPath>
</defs>
</svg>
