<svg width="791" height="791" viewBox="0 0 791 791" fill="none" xmlns="http://www.w3.org/2000/svg">
<path d="M295 595L195 678.333V528.333H93.718C80.797 528.333 68.4057 523.2 59.269 514.063C50.1327 504.927 45 492.537 45 479.617V93.718C45 80.797 50.1327 68.4057 59.269 59.269C68.4057 50.1327 80.797 45 93.718 45H629.617C642.537 45 654.927 50.1327 664.063 59.269C673.2 68.4057 678.333 80.797 678.333 93.718V238.73" stroke="#C1C7CD" stroke-width="90" stroke-linecap="round" stroke-linejoin="round"/>
<path d="M178.333 178.333H545" stroke="#C1C7CD" stroke-width="90" stroke-linecap="round" stroke-linejoin="round"/>
<path d="M178.333 311.667H345" stroke="#C1C7CD" stroke-width="90" stroke-linecap="round" stroke-linejoin="round"/>
<path d="M578.333 645C651.97 645 711.667 585.303 711.667 511.667C711.667 438.03 651.97 378.333 578.333 378.333C504.697 378.333 445 438.03 445 511.667C445 585.303 504.697 645 578.333 645Z" stroke="#637381" stroke-width="90" stroke-linecap="round" stroke-linejoin="round"/>
<path d="M745 745C728.89 724.863 704.873 708.02 675.517 696.28C646.16 684.537 612.567 678.333 578.333 678.333C544.1 678.333 510.507 684.537 481.15 696.28C451.793 708.02 427.777 724.863 411.667 745" stroke="#637381" stroke-width="90" stroke-linecap="round" stroke-linejoin="round"/>
</svg>
