<svg width="25" height="25" viewBox="0 0 25 25" fill="none" xmlns="http://www.w3.org/2000/svg">
<g clip-path="url(#clip0_1043_1811)">
<path d="M7.72135 12.5C6.3151 12.5465 5.16493 13.1417 4.27083 14.2857H2.52604C1.81424 14.2857 1.21528 14.0974 0.729167 13.7207C0.243056 13.344 0 12.793 0 12.0675C0 8.78441 0.538194 7.14286 1.61458 7.14286C1.66667 7.14286 1.85547 7.24051 2.18099 7.43583C2.50651 7.63114 2.92969 7.82878 3.45052 8.02874C3.97135 8.2287 4.48785 8.32868 5 8.32868C5.5816 8.32868 6.15885 8.22173 6.73177 8.00781C6.68837 8.35193 6.66667 8.65885 6.66667 8.92857C6.66667 10.2214 7.01823 11.4118 7.72135 12.5ZM21.6667 21.3867C21.6667 22.5028 21.3498 23.384 20.7161 24.0304C20.0825 24.6768 19.2405 25 18.1901 25H6.8099C5.75955 25 4.91753 24.6768 4.28385 24.0304C3.65017 23.384 3.33333 22.5028 3.33333 21.3867C3.33333 20.8938 3.34852 20.4125 3.37891 19.9428C3.40929 19.4731 3.47005 18.9662 3.5612 18.4222C3.65234 17.8781 3.76736 17.3735 3.90625 16.9085C4.04514 16.4435 4.23177 15.99 4.46615 15.5483C4.70052 15.1065 4.96962 14.7298 5.27344 14.4182C5.57726 14.1067 5.94835 13.8579 6.38672 13.6719C6.82509 13.4859 7.30903 13.3929 7.83854 13.3929C7.92535 13.3929 8.11198 13.4928 8.39844 13.6928C8.6849 13.8928 9.00174 14.116 9.34896 14.3624C9.69618 14.6089 10.1606 14.8321 10.7422 15.0321C11.3238 15.232 11.9097 15.332 12.5 15.332C13.0903 15.332 13.6762 15.232 14.2578 15.0321C14.8394 14.8321 15.3038 14.6089 15.651 14.3624C15.9983 14.116 16.3151 13.8928 16.6016 13.6928C16.888 13.4928 17.0747 13.3929 17.1615 13.3929C17.691 13.3929 18.1749 13.4859 18.6133 13.6719C19.0516 13.8579 19.4227 14.1067 19.7266 14.4182C20.0304 14.7298 20.2995 15.1065 20.5339 15.5483C20.7682 15.99 20.9549 16.4435 21.0937 16.9085C21.2326 17.3735 21.3477 17.8781 21.4388 18.4222C21.5299 18.9662 21.5907 19.4731 21.6211 19.9428C21.6515 20.4125 21.6667 20.8938 21.6667 21.3867ZM8.33333 3.57143C8.33333 4.55729 8.00781 5.399 7.35677 6.09654C6.70573 6.79408 5.92014 7.14286 5 7.14286C4.07986 7.14286 3.29427 6.79408 2.64323 6.09654C1.99219 5.399 1.66667 4.55729 1.66667 3.57143C1.66667 2.58557 1.99219 1.74386 2.64323 1.04632C3.29427 0.348772 4.07986 0 5 0C5.92014 0 6.70573 0.348772 7.35677 1.04632C8.00781 1.74386 8.33333 2.58557 8.33333 3.57143ZM17.5 8.92857C17.5 10.4074 17.0117 11.6699 16.0352 12.7162C15.0586 13.7626 13.8802 14.2857 12.5 14.2857C11.1198 14.2857 9.94141 13.7626 8.96484 12.7162C7.98828 11.6699 7.5 10.4074 7.5 8.92857C7.5 7.44978 7.98828 6.18722 8.96484 5.1409C9.94141 4.09459 11.1198 3.57143 12.5 3.57143C13.8802 3.57143 15.0586 4.09459 16.0352 5.1409C17.0117 6.18722 17.5 7.44978 17.5 8.92857ZM25 12.0675C25 12.793 24.7569 13.344 24.2708 13.7207C23.7847 14.0974 23.1858 14.2857 22.474 14.2857H20.7292C19.8351 13.1417 18.6849 12.5465 17.2786 12.5C17.9818 11.4118 18.3333 10.2214 18.3333 8.92857C18.3333 8.65885 18.3116 8.35193 18.2682 8.00781C18.8411 8.22173 19.4184 8.32868 20 8.32868C20.5122 8.32868 21.0286 8.2287 21.5495 8.02874C22.0703 7.82878 22.4935 7.63114 22.819 7.43583C23.1445 7.24051 23.3333 7.14286 23.3854 7.14286C24.4618 7.14286 25 8.78441 25 12.0675ZM23.3333 3.57143C23.3333 4.55729 23.0078 5.399 22.3568 6.09654C21.7057 6.79408 20.9201 7.14286 20 7.14286C19.0799 7.14286 18.2943 6.79408 17.6432 6.09654C16.9922 5.399 16.6667 4.55729 16.6667 3.57143C16.6667 2.58557 16.9922 1.74386 17.6432 1.04632C18.2943 0.348772 19.0799 0 20 0C20.9201 0 21.7057 0.348772 22.3568 1.04632C23.0078 1.74386 23.3333 2.58557 23.3333 3.57143Z" fill="#9FA6AC"/>
</g>
<defs>
<clipPath id="clip0_1043_1811">
<rect width="25" height="25" fill="white"/>
</clipPath>
</defs>
</svg>
